<svg width="25" height="24" viewBox="0 0 25 24" fill="none" xmlns="http://www.w3.org/2000/svg">
<path fill-rule="evenodd" clip-rule="evenodd" d="M0.147247 6.99129C0.416896 3.92594 2.66389 1.64712 5.72251 1.30952C7.33394 1.13166 9.40365 1 12 1C14.8727 1 17.1007 1.16118 18.7766 1.36779C21.536 1.70798 23.641 3.68908 24.0005 6.44607C24.1472 7.57113 24.25 8.92245 24.25 10.5C24.25 12.0776 24.1472 13.4289 24.0005 14.5539C23.641 17.3109 21.536 19.292 18.7766 19.6322C17.1007 19.8388 14.8727 20 12 20C11.0668 20 10.2016 19.983 9.40131 19.9529C9.16286 19.944 8.92904 20.0189 8.74047 20.1651C7.28213 21.2958 4.99499 22.977 3.13122 23.9335C3.04435 23.9781 2.94916 24 2.85152 24C2.42838 24 2.12598 23.5906 2.25042 23.1861L3.27199 19.866C3.4161 19.3977 3.19369 18.9011 2.78897 18.6249C1.30224 17.6101 0.319815 15.9705 0.147247 14.0087C0.0585199 13.0001 0 11.8305 0 10.5C0 9.1695 0.0585199 7.99993 0.147247 6.99129ZM17.3231 5.69854C16.0137 4.96085 13.7614 6.34059 12.125 8.81341C10.4886 6.34059 8.23626 4.96085 6.92692 5.69854C5.52985 6.48566 5.73536 9.38536 7.38592 12.1752C8.76142 14.5001 10.7064 16.0151 12.125 15.9999C13.5436 16.0151 15.4886 14.5001 16.8641 12.1752C18.5146 9.38536 18.7201 6.48566 17.3231 5.69854Z" fill="#FFFDF9"/>
</svg>
