<svg width="98" height="34" viewBox="0 0 98 34" fill="none" xmlns="http://www.w3.org/2000/svg">
<path fill-rule="evenodd" clip-rule="evenodd" d="M9.27269 24.51C16.953 32.2424 26.5516 35.1153 30.7118 30.927C33.8832 27.734 32.9785 21.3591 28.9667 15.0835C29.8404 13.6374 30.6895 12.1741 31.5132 10.6942C32.374 9.14775 31.3326 7.2539 29.5656 7.15405C26.973 7.00754 24.3616 6.93331 21.7331 6.93331C21.7218 6.93331 21.7104 6.93331 21.6991 6.93332C14.5784 1.05579 6.59374 -0.794346 2.89891 2.92554C-1.26126 7.11391 1.59238 16.7776 9.27269 24.51ZM21.6991 6.93332C19.0821 6.93396 16.482 7.00817 13.9007 7.15405C12.1336 7.2539 11.0922 9.14775 11.953 10.6942C14.3504 15.001 16.9617 19.1675 19.7723 23.1788C20.7295 24.5449 22.7368 24.5449 23.694 23.1788C25.5388 20.5458 27.2978 17.846 28.9667 15.0835C27.716 13.127 26.1633 11.1802 24.338 9.34254C23.4789 8.47764 22.5958 7.67354 21.6991 6.93332Z" fill="#14161F"/>
<path d="M46.6718 26.4932V10.706H40.1582V7.17323H57.1597V10.706H50.6738V26.4932H46.6718Z" fill="#14161F"/>
<path d="M68.2376 26.7968C66.8025 26.7968 65.4685 26.5484 64.2357 26.0516C63.0029 25.5364 61.9173 24.828 60.9789 23.9264C60.0589 23.0064 59.3321 21.9484 58.7985 20.7524C58.2833 19.538 58.0257 18.2316 58.0257 16.8332C58.0257 15.4348 58.2833 14.1376 58.7985 12.9416C59.3321 11.7272 60.0589 10.6692 60.9789 9.76762C61.9173 8.84762 63.0029 8.13922 64.2357 7.64243C65.4685 7.12723 66.8025 6.86963 68.2376 6.86963C69.6728 6.86963 71.0068 7.12723 72.2396 7.64243C73.4908 8.13922 74.5764 8.84762 75.4964 9.76762C76.4348 10.6692 77.1616 11.7272 77.6768 12.9416C78.192 14.1376 78.4496 15.4348 78.4496 16.8332C78.4496 18.2316 78.192 19.538 77.6768 20.7524C77.1616 21.9484 76.4348 23.0064 75.4964 23.9264C74.5764 24.828 73.4908 25.5364 72.2396 26.0516C71.0068 26.5484 69.6728 26.7968 68.2376 26.7968ZM68.2376 23.126C69.1208 23.126 69.9304 22.9696 70.6664 22.6568C71.4024 22.3256 72.0464 21.884 72.5984 21.332C73.1504 20.7616 73.5828 20.09 73.8956 19.3172C74.2084 18.5444 74.3648 17.7164 74.3648 16.8332C74.3648 15.9316 74.2084 15.1036 73.8956 14.3492C73.5828 13.5764 73.1504 12.914 72.5984 12.362C72.0464 11.7916 71.4024 11.35 70.6664 11.0372C69.9304 10.706 69.1208 10.5404 68.2376 10.5404C67.3728 10.5404 66.5725 10.706 65.8365 11.0372C65.1005 11.35 64.4565 11.7916 63.9045 12.362C63.3525 12.914 62.9201 13.5764 62.6073 14.3492C62.2945 15.1036 62.1381 15.9224 62.1381 16.8056C62.1381 17.7072 62.2945 18.5444 62.6073 19.3172C62.9201 20.09 63.3525 20.7616 63.9045 21.332C64.4565 21.884 65.1005 22.3256 65.8365 22.6568C66.5725 22.9696 67.3728 23.126 68.2376 23.126Z" fill="#14161F"/>
<path d="M81.7747 26.4932V7.17323H91.4623C92.7319 7.17323 93.8451 7.43083 94.8019 7.94602C95.7771 8.46122 96.5407 9.17882 97.0927 10.0988C97.6447 11.0004 97.9207 12.0492 97.9207 13.2452C97.9207 14.386 97.6447 15.4072 97.0927 16.3088C96.5407 17.2104 95.7771 17.9188 94.8019 18.434C93.8267 18.9492 92.7135 19.2068 91.4623 19.2068H85.7767V26.4932H81.7747ZM85.7767 15.8948H91.0207C91.8855 15.8948 92.5755 15.6556 93.0907 15.1772C93.6243 14.6988 93.8911 14.064 93.8911 13.2728C93.8911 12.4632 93.6243 11.8192 93.0907 11.3408C92.5755 10.8624 91.8855 10.6232 91.0207 10.6232H85.7767V15.8948Z" fill="#14161F"/>
</svg>
